<?xml version="1.0" encoding="utf-8"?>
<!-- Generator: Adobe Illustrator 22.0.1, SVG Export Plug-In . SVG Version: 6.00 Build 0)  -->
<svg version="1.1" id="Layer_1" xmlns="http://www.w3.org/2000/svg" xmlns:xlink="http://www.w3.org/1999/xlink" x="0px" y="0px"
	 viewBox="0 0 283.5 283.5" style="enable-background:new 0 0 283.5 283.5;" xml:space="preserve">
<style type="text/css">
	.st0{fill:#231F20;}
</style>
<path class="st0" d="M176.1,63.8v25.5l-34.4-14.2l-34.4,14.2V63.8L1,19.7v87.5c0,36,20,68.3,52.3,84.6l6.8,2.9v35.5l81.5,33.6
	l81.5-33.6v-35.5l7.1-2.9c32.3-16.3,52.3-48.6,52.3-84.6V19.7L176.1,63.8z M208.4,201v19.2l-66.5,27.3l-66.5-27.6v-19.2l42.6,17.6
	v-16.3l-42.6-17.6v-39.2c5.3,8.9,15,15,26,15c8.9,0,17.6-4.2,23.4-11l6.3,2.6l10.8,36.3l13.4-44.9c5,10.3,15.2,17.1,27.1,17.1
	c11.3,0,21-6.3,26.3-15.2v39.4l-42.6,17.6v16.3L208.4,201z M101.4,145.6c-7.1,0-13.1-5-14.7-11.8l22.6,9.5
	C106.9,144.8,104.3,145.6,101.4,145.6z M192.6,119.3l1.8,2.6c1.8,2.6,2.6,5.5,2.6,8.7c0,8.1-6.8,15-15,15c-7.4,0-13.4-5.3-14.7-12.4
	l-0.5-3.2l-8.7,3.7l0,0l-16.3,6.8l-59.1-24.4l59.1-24.4l59.4,24.4L192.6,119.3z M16,96.4l25.2,10.5V90.6L16,80.1V65.7l25.2,10.5
	V59.9L16,49.4V42l76.2,31.5v21.6l-29.4,12.1l-14.5-6v16.3l11.8,5v55.7l-1.1-0.5c-26.8-13.7-43.4-41-43.4-71V96.4H16z M267.5,65.7
	v14.5l-25.2,10.5v16.3l25.2-10.5v10.8c0,30-16.6,57-43.1,71l-1.1,0.5V123l11.8-5v-16.3l-14.5,6l-29.4-12.1V74.1l76.2-31.5v7.4
	l-25.2,10.5v16.3L267.5,65.7z"/>
</svg>
