<?xml version="1.0" encoding="utf-8"?>
<!-- Generator: Adobe Illustrator 22.0.1, SVG Export Plug-In . SVG Version: 6.00 Build 0)  -->
<svg version="1.1" id="Layer_1" xmlns="http://www.w3.org/2000/svg" xmlns:xlink="http://www.w3.org/1999/xlink" x="0px" y="0px"
	 viewBox="0 0 283.5 283.5" style="enable-background:new 0 0 283.5 283.5;" xml:space="preserve">
<style type="text/css">
	.st0{fill:#1D1C1A;}
</style>
<g>
	<path class="st0" d="M178.3,66.1v27.2l-36.6-15l-36.6,15V66.1L5.6,24.6v82.5c0,35.5,20.5,66.2,50.1,81.2l8.3,3.4v35l77.8,32.2
		l77.8-32.2v-35l8.3-3.4c29.8-15,50.1-45.7,50.1-81.2V24.6L178.3,66.1z M59.5,179.2c-26.2-13.5-44.1-40.7-44.1-72.4V92.3l24.9,10.4
		V92.3L15.4,82V62.2l24.9,10.4V62.2L15.4,51.9V39.1l80.4,33.5v24.6l-31.7,13l0,0l-11.7-4.9v10.4l11.7,4.9v60.4L59.5,179.2z
		 M210.2,220.2L142,248.5l-68.2-28.3v-24.4l42,17.4v-10.4l-42-17.4V125l1.6,0.8c-0.3,1.6-0.5,3.1-0.5,4.7c0,15,12.2,27,27,27
		c9.1,0,17.1-4.7,22.1-11.7l9.3,3.9l8.6,28.5l11.9-40.5l-11.9,4.9l0,0l0,0l-65.1-27l65.4-27l68.2,28.3v68.5l-42,17.4v10.4l42-17.4
		L210.2,220.2L210.2,220.2z M84.7,129.2l30.4,12.5c-3.1,3.6-7.8,5.7-13,5.7c-9.6,0-17.4-7.8-17.4-17.4
		C84.7,129.9,84.7,129.7,84.7,129.2z M268.6,51.9l-24.9,10.4v10.4l24.9-10.4V82l-24.9,10.4v10.4l24.9-10.4v14.5
		c0,31.4-17.9,58.9-44.1,72.4l-4.7,1.8v-60.4l11.7-4.9v-10.4l-11.7,4.9L188.2,97V72.1l80.4-33.5V51.9z"/>
	<path class="st0" d="M208.7,130.2c0-4.9-1.3-9.6-3.6-13.7l-9.1,3.6c2.1,2.9,3.1,6.2,3.1,9.9c0,9.6-7.8,17.4-17.4,17.4
		c-8.6,0-15.6-6.2-17.1-14.3l-9.1,3.6c3.1,11.7,13.7,20.2,26.2,20.2C196.7,157.2,208.7,145,208.7,130.2z"/>
</g>
</svg>
